<?xml version="1.0" encoding="UTF-8"?><svg xmlns="http://www.w3.org/2000/svg" xmlns:xlink="http://www.w3.org/1999/xlink" viewBox="0 0 1366 768"><defs><style>.g,.h,.i,.j{fill:none;}.k{letter-spacing:0em;}.h{stroke-width:3px;}.h,.i{stroke:#fff;}.h,.i,.j{stroke-miterlimit:10;}.l{letter-spacing:-.02em;}.m{letter-spacing:-.03em;}.n{fill:#f0eddb;}.o,.p{fill:#fff;}.q{fill:#ff87ab;}.r{fill:#db2a63;}.s{fill:#454545;}.t{fill:#3f3b3c;}.u{fill:#1b065e;}.i{stroke-width:2px;}.j{stroke:#000;}.p{font-family:Noteworthy-Bold, Noteworthy;font-size:48px;}.v{clip-path:url(#f);}.w{clip-path:url(#e);}.x{clip-path:url(#d);}.y{isolation:isolate;}</style><clipPath id="d"><path class="g" d="M67.3,85.2l11.16-.32c-.57,.02-1.13-.07-1.67-.26-.16-.06-.32-.12-.47-.2-1.58-.77-2.72-2.43-3.21-4.69l-11.16,.32c.49,2.25,1.63,3.92,3.21,4.69,.16,.08,.31,.14,.47,.2,.54,.19,1.1,.28,1.67,.26Z"/></clipPath><clipPath id="e"><path class="g" d="M81.2,65.68l-11.16,.32c-1.01,.03-2.07,.38-3.1,1.04-1.83,1.17-3.36,3.17-4.31,5.63-.94,2.46-1.19,5.09-.68,7.39l11.16-.32c-.5-2.3-.26-4.93,.68-7.39,.95-2.46,2.48-4.46,4.31-5.63,1.04-.66,2.09-1.01,3.1-1.04Z"/></clipPath><clipPath id="f"><path class="g" d="M67.41,85.59l11.16-.32c3.02-.09,6.17-2.72,7.75-6.83,.96-2.51,1.21-5.2,.7-7.56-.53-2.42-1.79-4.22-3.56-5.08-.18-.09-.36-.16-.55-.23-.61-.21-1.24-.31-1.88-.29l-11.16,.32c.64-.02,1.27,.08,1.88,.29,.18,.07,.37,.14,.55,.23,1.77,.86,3.03,2.66,3.56,5.08,.52,2.36,.27,5.05-.7,7.56-1.58,4.11-4.73,6.74-7.75,6.83Z"/></clipPath></defs><g id="a"/><g id="b"><rect class="q" width="1366" height="774.42"/></g><g id="c"><polygon class="u" points="0 774.42 1366 181.5 1366 774.42 0 774.42"/><g><path d="M72.1,65.28s5.17-3.16,6.73-2.97,1.28,0,1.28,0l.85,.77,12.86,.1,5.87,21.6-32.05,2.3,4.46-21.8Z"/><path class="t" d="M110.83,100.19l.46-.08c.28-.05,.69-.17,1.11-.2,.84-.09,1.75,.21,2.11,.6-.32,.86,2.13,0,2.94-4.29,0,0-.68-1.04-1.73-1.78-.52-.37-1.14-.66-1.8-.71-.17-.01-.34,0-.51,.01-.1,.01-.14,.02-.31,.06-.17,.04-.35,.09-.53,.14-.7,.23-1.39,.63-1.91,1.26-.52,.64-.85,1.52-.82,2.46,0,.47,.1,.95,.27,1.39,.17,.44,.43,.77,.72,1.15Z"/><path class="i" d="M75.55,85.31s3.23,5.99,10.25,5.13c.47-.06,.88-.36,1.09-.8,.74-1.6,2.36-5.81,1.45-10.65-1.16-6.17-1.75-10.46,.27-13.68,2.02-3.22,5.47-1.34,5.47,0s8.4,37.34,8.25,41.36c0,.15,0,.31,.05,.45l2.27,7.35c.18,.59,.72,.99,1.33,.99h0c.76,0,1.38,.61,1.4,1.37,.17,7.13,.91,39.63-.03,41.54"/><path class="h" d="M104.54,83.44s-.9,3.87-.9,5.75,1.59,9.92,6.37,14.22c4.78,4.29,7.7,6.27,8.5,7.56s2.39,2.9,5.31,3.44c1.2,.22,4-.19,7.15-1.14,4.53-1.37,9.78-3.85,11.97-7.17"/><path class="h" d="M130.97,113.26c2.96,10.47-.95,13.94-3.56,15.08-1.69,.74-3.27,1.69-4.65,2.92-4.75,4.23-14.27,12.67-14.93,12.94"/><path class="r" d="M117.57,96.51s-2.99,.2-5.04,2.8l-1.12,1.42c-.42,.54-.54,1.25-.33,1.9,1.08,3.23,4.41,1.07,5.1-.08,.76-1.27,4.41-4.58,5.1-5.03s1.01-2.35-.76-2.48-6.49-1.27-8.06-1.91-2.39-.45-2.71,0-.69,1.15-1.45,1.4-.95,.83-.95,.83c0,0-.7,5.43,2.62,5.35,0,0,3.87-5.22,7.59-4.21Z"/><line class="h" x1="86.47" y1="117.55" x2="104.97" y2="115.47"/><path class="o" d="M100.51,43.39s-.05,.56-.14,1.6c-.01,.53,0,1.18,.02,1.96,.07,.77,.14,1.67,.35,2.65,.38,1.98,1.12,4.38,2.5,6.93,1.35,2.55,3.38,5.2,6.1,7.62,1.38,1.18,2.92,2.31,4.63,3.3,1.71,.96,3.57,1.8,5.54,2.46,3.95,1.33,8.34,1.88,12.76,1.64,2.21-.12,4.44-.45,6.63-.98,2.18-.54,4.35-1.23,6.47-2.22,2.1-1,4.14-2.28,5.82-3.96,1.69-1.64,2.92-3.78,3.35-5.92,0,0-.27,.28-.8,.82-.54,.52-1.37,1.23-2.57,1.94-2.39,1.45-6.31,2.66-11.86,3.15-5.5,.51-12.4,.6-19.81-1.86-3.69-1.24-7.42-3.24-10.89-6.35-3.44-3.08-6.56-7.28-8.11-12.77Z"/><path class="o" d="M94.45,48.48s-.19,.6-.49,1.76c-.28,1.16-.67,2.87-.93,5.11-.26,2.23-.39,4.99-.11,8.18,.29,3.18,1.02,6.8,2.56,10.56,1.56,3.75,4,7.61,7.45,10.9,3.42,3.28,7.91,6.03,13.09,7.25,2.56,.61,5.33,.82,8.02,.53,2.69-.28,5.33-1.02,7.76-2.18,4.84-2.31,8.83-6.49,10.37-11.29,0,0-.32,.31-.95,.9-.63,.59-1.6,1.42-2.94,2.34-1.34,.92-3.11,1.88-5.29,2.67-2.19,.75-4.8,1.38-7.74,1.43-2.94,.1-6.13-.45-9.48-1.81-3.33-1.36-6.75-3.59-9.86-6.74-1.55-1.58-3.04-3.37-4.35-5.41-1.31-2.05-2.5-4.34-3.5-6.84-1.99-5.01-3.27-10.88-3.61-17.36Z"/><path class="o" d="M91.43,48.14s.17-.24,.47-.68c.3-.43,.76-1.03,1.37-1.69,.61-.65,1.39-1.35,2.28-1.97,.91-.62,1.91-1.12,3.06-1.54,1.14-.42,2.45-.77,3.82-1.06,.66-.14,1.29-.23,1.85-.27,.58-.04,1.04-.04,1.63,.04,1.16,.15,2.65,.67,4.26,1.54,1.64,.86,3.44,2.11,5.47,3.23,0,0,.01-.85-.31-2.37-.17-.76-.43-1.7-.91-2.79-.49-1.08-1.22-2.35-2.44-3.59-1.21-1.22-2.95-2.48-5.4-3.02-2.5-.54-5.1-.05-7.28,.89-2.21,.94-4.56,2.52-6.19,4.96-1.61,2.4-2.29,5.49-1.68,8.32Z"/><path class="o" d="M104.87,34.22l.89-.36c.57-.22,1.41-.51,2.45-.72,2.07-.45,4.93-.5,7.58,.6,2.68,1.05,5.46,3.1,8.22,5.91,2.82,2.82,5.73,6.74,9.61,10.49,0,0,.11-.97-.02-2.77-.15-1.8-.46-4.46-1.85-7.82-.71-1.67-1.7-3.51-3.23-5.35-1.53-1.83-3.58-3.59-6.25-4.86-2.64-1.25-6.05-1.95-9.43-1.13-3.33,.78-6.37,3-7.97,6.02Z"/><path class="o" d="M121.74,29.33l1,.1,2.76,.22c2.32,.19,5.56,.46,8.24,1.92,1.39,.72,2.8,1.73,4.28,2.95,1.47,1.23,3.05,2.69,4.63,4.23,3.17,3.11,6.48,6.65,10.03,11.08,0,0,.05-.25,.09-.75,.05-.5,.08-1.24,.04-2.21-.11-1.94-.56-4.87-2.25-8.34-.85-1.73-2-3.58-3.58-5.39-1.57-1.81-3.5-3.61-6.09-5.15-1.3-.75-2.76-1.42-4.38-1.86-1.62-.44-3.44-.63-5.18-.45-3.53,.34-6.59,1.88-9.58,3.65Z"/><path class="o" d="M134.66,89.29s.18,.26,.51,.74c.33,.48,.8,1.17,1.34,2.04,1.08,1.73,2.42,4.18,3.38,6.99,.48,1.4,.89,2.93,1.23,4.55,.33,1.63,.64,3.39,.72,4.96,.09,1.54-.09,3.22-.65,5.26-.54,2.02-1.39,4.28-2.08,6.72,0,0,.88-.28,2.36-1.13,.74-.43,1.64-1.02,2.62-1.87,.97-.87,2.07-2,3.02-3.64,.96-1.6,1.69-3.91,1.72-6.28,.04-2.38-.41-4.73-1.37-7.19-.96-2.43-2.56-4.91-4.78-6.89-2.2-1.99-4.97-3.5-8.03-4.25Z"/><path class="o" d="M141.67,27.69l.64,.11c.42,.07,1.05,.2,1.84,.41,1.58,.42,3.83,1.21,6.45,2.63,5.21,2.86,12.17,7.96,18.67,15.48,6.53,7.52,12.49,17.54,16.07,29.41,1.82,5.92,3.05,12.28,3.7,18.88,.32,3.3,.49,6.67,.49,10.09-.03,1.71,.03,3.44-.19,5.1-.21,1.66-.7,3.37-2,4.71l.43-.24c.27-.18,.69-.46,1.14-.94,.95-.94,1.96-2.74,2.64-5.16,1.32-4.71,2.89-11.97,2.34-21.72-.27-4.86-1.11-10.3-2.89-16.11-1.79-5.79-4.56-11.95-8.66-17.89-4.1-5.92-9.52-11.66-16.32-16.34-3.4-2.34-7.15-4.37-11.18-6.03-4.03-1.63-8.58-2.82-13.17-2.38Z"/><path class="r" d="M89.25,65.49s2.03-2.16,3.81-.28c0,0,.98,3.25,.73,4.07s-3.64,.65-4.03-.04-.5-3.75-.5-3.75Z"/><path class="i" d="M62.11,74.25s-1.99-6.79-.77-7.65c0,0,2.78-.74,3.51,1.45s1.39,4.5,1.39,4.5l-4.13,1.69Z"/><path class="i" d="M97.37,179.55s20.41-25.17,32.62-40.37c7.05-8.78,16.17-15.63,26.57-19.81,9.79-3.93,21.4-7.09,28.52-3.9,14.2,6.35,15.1,25.92,4.06,40.27-10.25,13.32-82.08,77.33-119.54,50.3-5.13-3.7-7.51-10.19-5.99-16.38,2.85-11.56,8.28-32.03,13.28-42.13,7.2-14.54,10.19-28.77,9.6-29.99-.57-1.14-22.22-20.35-27.68-27.35-.53-.68-.7-1.57-.46-2.4,.43-1.48,2.35-4.66,3.72-7.22"/><g class="y"><g class="y"><g class="x"><g class="y"><path d="M67.3,85.2l11.16-.32c-.23,0-.46,0-.69-.03l-11.16,.32c.23,.03,.46,.04,.69,.03"/><path d="M66.61,85.17l11.16-.32c-.33-.04-.66-.12-.99-.23-.16-.06-.32-.12-.47-.2-.14-.07-.27-.14-.4-.22l-11.16,.32c.13,.08,.26,.15,.4,.22,.16,.08,.31,.14,.47,.2,.32,.11,.65,.19,.99,.23"/><path d="M64.75,84.52l11.16-.32c-.18-.11-.36-.24-.53-.37l-11.16,.32c.17,.14,.34,.26,.53,.37"/><path d="M64.23,84.15l11.16-.32c-.14-.12-.28-.24-.41-.37l-11.16,.32c.13,.13,.27,.26,.41,.37"/><path d="M63.82,83.78l11.16-.32c-.13-.13-.26-.28-.38-.43l-11.16,.32c.12,.15,.25,.29,.38,.43"/><path class="s" d="M63.43,83.35l11.16-.32c-.14-.17-.27-.35-.39-.54l-11.16,.32c.12,.19,.25,.37,.39,.54"/><path d="M63.04,82.81l11.16-.32c-.15-.24-.3-.49-.43-.76l-11.16,.32c.13,.27,.27,.52,.43,.76"/><path class="s" d="M62.61,82.05l11.16-.32c-.19-.4-.36-.83-.5-1.29l-11.16,.32c.14,.46,.3,.89,.5,1.29"/><path class="s" d="M62.12,80.76l11.16-.32c-.07-.23-.13-.47-.18-.71l-11.16,.32c.05,.24,.11,.48,.18,.71"/></g></g></g><g class="y"><g class="w"><g class="y"><path class="s" d="M61.94,80.05l11.16-.32c-.5-2.3-.26-4.93,.68-7.39,.95-2.46,2.48-4.46,4.31-5.63,1.04-.66,2.09-1.01,3.1-1.04l-11.16,.32c-1.01,.03-2.07,.38-3.1,1.04-1.83,1.17-3.36,3.17-4.31,5.63-.94,2.46-1.19,5.09-.68,7.39"/></g></g></g><path d="M62.16,72.44c-.96,2.51-1.21,5.2-.7,7.56,.53,2.42,1.79,4.22,3.56,5.08,.17,.08,.35,.16,.53,.22,3.49,1.24,7.7-1.57,9.61-6.54,.96-2.51,1.21-5.2,.7-7.56-.53-2.42-1.79-4.22-3.56-5.08-.18-.09-.36-.16-.55-.23-1.63-.58-3.45-.31-5.18,.8-1.88,1.2-3.45,3.24-4.41,5.75Zm-.22,7.61c-.5-2.3-.26-4.93,.68-7.39,.95-2.46,2.48-4.46,4.31-5.63,1.62-1.03,3.29-1.3,4.77-.78,.16,.06,.31,.12,.47,.2,1.58,.77,2.72,2.43,3.21,4.68,.5,2.31,.26,4.93-.68,7.39-1.85,4.81-5.83,7.56-9.08,6.41-.16-.06-.32-.12-.47-.2-1.58-.77-2.72-2.43-3.21-4.69"/><g class="y"><g class="v"><g class="y"><path d="M67.41,85.59l11.16-.32c3.02-.09,6.17-2.72,7.75-6.83,.96-2.51,1.21-5.2,.7-7.56-.06-.25-.12-.5-.19-.74l-11.16,.32c.07,.24,.13,.49,.19,.74,.52,2.36,.27,5.05-.7,7.56-1.58,4.11-4.73,6.74-7.75,6.83"/><path d="M75.67,70.46l11.16-.32c-.14-.48-.32-.94-.52-1.36l-11.16,.32c.2,.42,.38,.87,.52,1.36"/><path d="M75.14,69.1l11.16-.32c-.14-.29-.29-.56-.46-.82l-11.16,.32c.17,.26,.32,.53,.46,.82"/><path d="M74.68,68.29l11.16-.32c-.13-.21-.28-.4-.43-.59l-11.16,.32c.15,.19,.29,.38,.43,.59"/><path d="M74.25,67.7l11.16-.32c-.14-.17-.28-.33-.43-.47l-11.16,.32c.15,.15,.29,.31,.43,.47"/><path d="M73.83,67.22l11.16-.32c-.15-.15-.3-.29-.46-.42l-11.16,.32c.16,.13,.32,.27,.46,.42"/><path d="M73.36,66.8l11.16-.32c-.19-.15-.39-.3-.6-.42l-11.16,.32c.21,.13,.41,.27,.6,.42"/><path d="M72.77,66.38l11.16-.32c-.15-.09-.31-.18-.47-.26-.18-.09-.36-.16-.55-.23-.36-.13-.74-.22-1.11-.26l-11.16,.32c.38,.04,.75,.13,1.11,.26,.18,.07,.37,.14,.55,.23,.16,.08,.32,.16,.47,.26"/><path d="M70.64,65.63l11.16-.32c-.25-.03-.51-.04-.76-.03l-11.16,.32c.26,0,.51,0,.76,.03"/></g></g></g></g><ellipse class="n" cx="68.62" cy="75.6" rx="9.58" ry="6.88" transform="translate(-20.42 125.56) rotate(-77.07)"/><polygon class="n" points="75.64 60.56 82.37 57.27 82.37 53.36 75.55 56.56 75.64 60.56"/><polygon class="j" points="74.98 56.57 74.98 61.38 82.94 57.52 82.94 52.4 74.98 56.57"/><polyline points="83.12 52.09 90.71 59.27 90.71 62.85 87.46 62.82"/><path d="M75.17,61.08l1.99,1.37s.82-.49,1.57-.44,1.23,.01,1.57,0l.85,.77,6.31,.05v-1.74l-4.34-3.86"/><path class="r" d="M61.66,69.6c.55-.28,1.68-1.53,.11-2.85-.06-.05-.12,0-.16,.05-.13,.17-.33,.56-.31,1.23,0,.39,.07,.61,.14,1.12,0,.07,.16,.49,.23,.45Z"/></g><text class="p" transform="translate(248.38 104.95)"><tspan x="0" y="0">Ca</tspan><tspan class="l" x="59.4" y="0">s</tspan><tspan class="k" x="82.08" y="0">e Stu</tspan><tspan class="m" x="185.1" y="0">d</tspan><tspan x="207.9" y="0">y: </tspan></text></g></svg>